{"glyphs":{":":{"x_min":0,"x_max":159,"ha":159,"o":"m 79 62 q 104 62 120 52 q 136 41 136 26 q 136 12 120 1 q 103 -9 79 -9 q 55 -9 39 1 q 23 12 23 26 q 23 41 39 52 q 55 62 79 62 z m 79 203 q 104 203 120 193 q 136 182 136 167 q 136 152 120 141 q 104 131 79 131 q 55 131 39 141 q 23 152 23 167 q 23 182 39 193 q 55 203 79 203 z"},"$":{"x_min":0,"x_max":329,"ha":329,"o":"m 144 15 l 150 15 q 190 15 210 57 q 229 99 229 187 q 229 268 215 312 q 201 357 169 389 z m 172 729 q 170 729 167 729 q 164 730 163 730 q 133 730 119 700 q 104 670 104 609 q 104 550 115 511 q 126 472 152 441 z m 190 722 l 171 423 q 239 362 266 310 q 294 257 294 190 q 294 105 254 49 q 214 -8 157 -8 q 153 -8 145 -6 q 143 -6 142 -6 l 138 -77 l 202 -112 l 52 -112 l 119 -74 l 123 -1 q 101 7 84 31 q 67 56 52 99 l 18 29 l 18 312 q 53 157 76 96 q 99 35 124 21 l 150 404 q 91 453 66 497 q 41 542 41 596 q 41 664 74 708 q 108 751 159 751 q 163 751 166 751 q 169 750 173 750 l 177 813 l 116 850 l 260 850 l 197 813 l 192 744 q 208 737 221 720 q 234 703 246 674 l 277 756 l 277 506 q 253 609 233 659 q 212 708 190 722 z"},"?":{"x_min":0,"x_max":361,"ha":361,"o":"m 101 26 q 101 42 122 52 q 143 62 176 62 q 209 62 230 52 q 252 41 252 26 q 252 11 230 1 q 209 -9 176 -9 q 143 -9 122 1 q 101 11 101 26 z m 34 444 l 34 711 l 68 647 q 93 700 119 725 q 145 751 174 751 q 235 751 281 686 q 326 621 326 529 q 326 447 289 394 q 251 340 184 326 l 184 131 l 267 93 l 87 93 l 169 134 l 131 340 l 144 340 q 210 340 242 385 q 274 429 274 521 q 274 610 245 669 q 216 729 175 729 q 132 729 97 660 q 63 590 34 444 z"},"<":{"x_min":0,"x_max":557,"ha":557,"o":"m 498 657 l 498 621 l 114 375 l 498 129 l 498 93 l 59 375 z"},"'":{"x_min":0,"x_max":265,"ha":265,"o":"m 190 743 l 128 586 l 105 586 l 124 713 l 75 743 z"},"=":{"x_min":0,"x_max":833,"ha":833,"o":"m 124 229 l 709 229 l 709 189 l 124 189 z m 124 406 l 709 406 l 709 367 l 124 367 z"},"a":{"x_min":0,"x_max":353,"ha":353,"o":"m 247 279 q 247 377 220 446 q 193 514 158 514 q 121 514 102 451 q 84 387 84 259 q 84 125 100 71 q 117 17 155 17 q 193 17 220 91 q 247 166 247 279 z m 349 0 l 240 0 l 240 92 q 223 42 200 17 q 178 -9 152 -9 q 95 -9 60 64 q 26 138 26 263 q 26 386 63 462 q 100 539 157 539 q 187 539 211 505 q 234 471 249 406 l 258 531 l 345 531 l 283 493 l 283 41 z"},"L":{"x_min":0,"x_max":300,"ha":300,"o":"m 2 0 l 63 39 l 63 707 l 11 743 l 126 743 l 79 20 l 227 20 l 282 278 l 282 0 z"},"3":{"x_min":0,"x_max":345,"ha":345,"o":"m 29 33 l 29 305 q 61 149 95 82 q 128 14 173 14 q 212 14 241 76 q 270 138 270 228 q 270 308 246 350 q 223 391 177 391 l 135 391 l 103 325 l 103 472 l 135 410 l 169 410 q 210 410 232 454 q 253 497 253 582 q 253 653 232 692 q 212 732 175 732 q 136 732 109 689 q 83 646 49 515 l 49 754 l 81 676 q 97 714 122 732 q 146 751 181 751 q 234 751 270 705 q 305 658 305 587 q 305 531 283 485 q 260 438 216 402 q 270 380 296 337 q 323 294 323 231 q 323 134 276 64 q 229 -7 169 -7 q 138 -7 111 20 q 83 47 62 98 z"},";":{"x_min":0,"x_max":159,"ha":159,"o":"m 80 203 q 104 203 120 193 q 136 182 136 167 q 136 152 120 141 q 104 131 80 131 q 56 131 39 141 q 23 152 23 167 q 23 182 39 193 q 56 203 80 203 z m 76 -117 l 91 -6 q 84 -7 82 -8 q 79 -8 75 -8 q 52 -8 37 2 q 21 12 21 26 q 21 40 38 51 q 55 61 79 61 q 104 61 121 51 q 138 41 138 26 q 138 21 137 17 q 136 13 134 9 z"},"J":{"x_min":0,"x_max":337,"ha":337,"o":"m 44 743 l 257 743 l 167 708 q 245 613 279 526 q 313 439 313 337 q 313 174 269 83 q 224 -7 145 -7 q 94 -7 56 42 q 18 90 18 158 q 18 207 37 245 q 57 284 98 319 l 18 351 l 202 351 q 125 327 95 286 q 65 246 65 163 q 65 95 89 54 q 113 12 150 12 q 205 12 230 87 q 255 163 255 329 q 255 470 228 552 q 201 634 137 707 z"},"V":{"x_min":0,"x_max":352,"ha":352,"o":"m 375 725 l 312 680 l 193 0 l 120 0 l 175 38 l 56 707 l -1 743 l 122 743 l 189 83 l 292 677 l 226 725 z"},"\"":{"x_min":0,"x_max":400,"ha":400,"o":"m 325 743 l 263 586 l 240 586 l 259 713 l 210 743 z m 190 743 l 128 586 l 105 586 l 124 713 l 75 743 z"},"7":{"x_min":0,"x_max":300,"ha":300,"o":"m 283 743 l 145 38 l 198 0 l 69 0 l 261 724 l 73 724 l 12 461 l 12 743 z"},"S":{"x_min":0,"x_max":323,"ha":323,"o":"m 282 756 l 282 506 q 251 640 226 686 q 202 731 166 731 q 138 731 124 699 q 109 667 109 604 q 109 538 125 498 q 141 458 188 411 q 258 342 278 296 q 299 250 299 190 q 299 104 259 48 q 219 -7 158 -7 q 125 -7 101 19 q 76 44 57 99 l 23 29 l 23 312 q 61 136 89 76 q 118 15 157 15 q 197 15 215 57 q 234 98 234 187 q 234 273 218 316 q 203 359 163 398 q 157 404 144 416 q 84 468 62 512 q 55 526 50 551 q 46 576 46 604 q 46 668 80 709 q 115 751 167 751 q 194 751 215 732 q 235 713 251 674 z"},"}":{"x_min":0,"x_max":239,"ha":239,"o":"m 203 -157 l 27 -157 q 83 -75 109 -11 q 135 52 135 108 q 135 182 106 234 q 78 287 16 327 q 72 359 100 411 q 128 463 128 534 q 128 591 103 654 q 78 716 16 809 l 197 809 l 57 779 q 121 706 151 644 q 181 582 181 524 q 181 471 155 426 q 129 381 77 346 l 193 327 l 83 310 q 134 264 160 214 q 186 164 186 113 q 186 67 158 8 q 130 -51 71 -132 z"},"Z":{"x_min":0,"x_max":342,"ha":342,"o":"m 323 743 l 49 19 l 245 19 l 299 277 l 299 0 l 21 0 l 247 724 l 97 724 l 42 465 l 42 743 z"},"x":{"x_min":0,"x_max":319,"ha":319,"o":"m 318 0 l 208 0 l 146 210 l 83 53 l 148 18 l 4 18 l 63 53 l 136 241 l 61 495 l -2 531 l 148 531 l 83 497 l 156 294 l 226 472 l 167 507 l 311 507 l 249 470 l 168 265 l 252 35 z"},")":{"x_min":0,"x_max":239,"ha":239,"o":"m 197 809 l 57 779 q 132 637 171 511 q 210 385 210 282 q 210 196 174 95 q 137 -6 61 -129 l 203 -157 l 20 -157 q 85 -46 116 65 q 147 177 147 299 q 147 436 115 560 q 83 685 16 809 z"},"&":{"x_min":0,"x_max":377,"ha":377,"o":"m 243 66 q 189 180 155 256 q 121 332 103 379 q 84 354 75 317 q 66 280 66 231 q 66 141 95 76 q 125 12 162 12 q 185 12 205 26 q 226 39 243 66 z m 211 315 l 379 315 l 305 278 l 305 230 q 305 186 295 144 q 285 103 265 64 l 295 0 l 356 -38 l 212 -38 l 274 1 l 253 46 q 233 19 210 5 q 186 -9 159 -9 q 101 -9 59 63 q 16 135 16 239 q 16 297 35 340 q 54 383 92 411 q 74 460 66 506 q 57 552 57 596 q 57 667 88 709 q 120 751 171 751 q 202 751 228 731 q 254 711 271 674 l 300 744 l 300 516 q 269 643 242 687 q 215 731 176 731 q 143 731 127 701 q 111 670 111 605 q 111 560 116 516 q 121 472 130 429 q 141 433 154 434 q 167 436 186 436 q 197 436 202 436 q 208 436 212 435 l 247 500 l 247 353 l 212 416 q 207 417 200 417 q 194 418 182 418 q 169 418 158 416 q 147 413 136 408 q 151 346 181 265 q 211 183 255 86 q 270 118 277 153 q 284 187 284 225 l 284 277 z"},"_":{"x_min":0,"x_max":491,"ha":491,"o":"m 0 -117 l 491 -117 l 491 -149 l 0 -149 z"},"v":{"x_min":0,"x_max":314,"ha":314,"o":"m 322 511 l 261 472 l 178 0 l 86 0 l 150 36 l 53 491 l -13 531 l 108 531 l 166 54 l 240 472 l 176 511 z"},"O":{"x_min":0,"x_max":353,"ha":353,"o":"m 91 372 q 91 167 110 92 q 129 17 177 17 q 224 17 243 91 q 262 166 262 372 q 262 579 243 652 q 224 726 177 726 q 129 726 110 651 q 91 577 91 372 z m 29 372 q 29 546 70 648 q 110 751 177 751 q 243 751 284 648 q 324 546 324 372 q 324 198 284 96 q 243 -7 177 -7 q 110 -7 70 95 q 29 198 29 372 z"},"(":{"x_min":0,"x_max":239,"ha":239,"o":"m 41 809 l 223 809 q 156 685 123 559 q 91 434 91 299 q 91 178 122 66 q 154 -45 219 -157 l 36 -157 l 177 -129 q 102 -8 65 93 q 29 193 29 282 q 29 386 67 512 q 106 639 181 779 z"},"C":{"x_min":0,"x_max":327,"ha":327,"o":"m 253 296 l 306 296 q 301 161 261 77 q 221 -7 165 -7 q 108 -7 69 98 q 29 204 29 369 q 29 533 73 642 q 116 751 176 751 q 206 751 228 729 q 250 708 263 666 l 294 737 l 294 499 q 271 618 241 675 q 212 732 175 732 q 131 732 111 635 q 91 538 91 319 q 91 155 109 85 q 126 14 167 14 q 205 14 229 75 q 253 136 253 234 z"},"W":{"x_min":0,"x_max":435,"ha":435,"o":"m 432 743 l 374 707 l 374 33 l 421 0 l 298 0 l 225 362 l 79 0 l 2 0 l 63 39 l 63 707 l 10 743 l 127 743 l 85 104 l 221 521 l 313 44 l 358 743 z"},"A":{"x_min":0,"x_max":395,"ha":395,"o":"m 245 327 l 180 582 l 153 327 z m 394 0 l 249 0 l 315 50 l 250 307 l 151 307 l 118 0 l 0 0 l 58 40 l 198 754 l 334 49 z"},"f":{"x_min":0,"x_max":306,"ha":306,"o":"m 324 732 l 324 544 q 307 636 283 680 q 260 725 228 725 q 192 725 177 664 q 163 602 159 391 l 215 391 l 254 481 l 254 282 l 214 372 l 159 372 l 159 337 q 159 258 162 183 q 165 108 171 39 l 249 0 l 79 0 l 145 38 q 131 132 122 217 q 114 301 111 372 l 64 372 l 28 279 l 28 481 l 66 391 l 110 391 q 109 407 109 423 q 109 439 109 459 q 109 626 134 688 q 160 751 221 751 q 250 751 270 730 q 291 710 308 665 z"},"Q":{"x_min":0,"x_max":353,"ha":353,"o":"m 219 37 q 242 66 252 143 q 262 219 262 372 q 262 576 243 651 q 224 726 177 726 q 129 726 110 652 q 91 579 91 372 q 91 167 110 92 q 129 17 177 17 q 184 17 191 19 q 199 21 205 25 l 130 147 l 230 147 l 183 96 z m 232 16 l 319 -129 l 188 -129 l 266 -78 l 217 4 q 208 -1 198 -4 q 188 -7 177 -7 q 110 -7 70 95 q 29 198 29 372 q 29 546 70 648 q 110 751 177 751 q 243 751 284 648 q 324 546 324 372 q 324 239 301 148 q 277 57 232 16 z"},"w":{"x_min":0,"x_max":520,"ha":520,"o":"m 520 531 l 451 491 l 361 38 l 426 0 l 334 0 l 258 393 l 187 0 l 93 0 l 159 38 l 64 490 l 0 531 l 110 531 l 178 65 l 247 453 l 186 491 l 331 491 l 269 454 l 342 62 l 403 531 z"},"-":{"x_min":0,"x_max":279,"ha":279,"o":"m 238 325 l 230 271 l 59 282 l 41 309 z"},"E":{"x_min":0,"x_max":332,"ha":332,"o":"m 2 0 l 63 39 l 63 707 l 11 743 l 308 743 l 251 596 l 251 724 l 126 724 l 103 383 l 180 383 l 229 483 l 229 257 l 178 361 l 102 361 l 79 19 l 248 19 l 300 201 l 300 0 z"},"s":{"x_min":0,"x_max":285,"ha":285,"o":"m 242 536 l 242 339 q 227 430 204 474 q 182 517 150 517 q 121 517 105 496 q 89 475 89 436 q 89 352 197 271 q 201 269 203 267 q 235 243 251 209 q 266 176 266 129 q 266 66 235 29 q 204 -9 152 -9 q 119 -9 93 16 q 66 40 44 93 l 25 0 l 25 238 q 45 131 78 73 q 110 15 149 15 q 182 15 196 41 q 210 66 210 127 q 210 187 196 220 q 182 253 148 277 q 147 278 145 279 q 40 354 40 435 q 40 480 69 510 q 97 539 141 539 q 170 539 189 524 q 208 508 225 469 z"},">":{"x_min":0,"x_max":557,"ha":557,"o":"m 59 93 l 59 129 l 444 375 l 59 621 l 59 657 l 498 375 z"},"l":{"x_min":0,"x_max":181,"ha":181,"o":"m 13 0 l 73 39 l 73 700 l 3 743 l 127 743 l 97 39 l 158 0 z"},"8":{"x_min":0,"x_max":341,"ha":341,"o":"m 171 393 q 125 393 99 351 q 73 310 73 236 q 73 141 101 78 q 128 14 167 14 q 207 14 238 76 q 268 138 268 225 q 268 307 243 350 q 218 393 171 393 z m 174 732 q 134 732 113 694 q 92 655 92 583 q 92 500 113 455 q 134 409 171 409 q 208 409 230 454 q 252 499 252 577 q 252 651 231 691 q 211 732 174 732 z m 211 401 q 263 381 290 335 q 318 290 318 225 q 318 170 299 121 q 279 71 242 29 q 226 11 206 1 q 186 -9 165 -9 q 148 -9 130 0 q 112 8 99 23 q 62 63 43 116 q 23 169 23 226 q 23 293 51 339 q 79 384 132 403 q 86 433 64 477 q 42 522 42 583 q 42 657 79 704 q 115 751 172 751 q 230 751 266 706 q 302 660 302 586 q 302 523 278 474 q 253 424 211 401 z"},"\\":{"x_min":0,"x_max":265,"ha":265,"o":"m 11 821 l 135 821 l 84 784 l 252 -106 l 307 -142 l 235 -142 z"},"e":{"x_min":0,"x_max":286,"ha":286,"o":"m 216 295 l 216 328 q 216 414 198 464 q 181 514 151 514 q 117 514 99 459 q 80 404 77 295 z m 270 275 l 77 275 q 77 132 96 75 q 115 17 159 17 q 188 17 210 62 q 233 106 255 207 l 255 2 l 236 75 q 218 31 198 11 q 179 -9 155 -9 q 97 -9 61 64 q 26 137 26 260 q 26 381 62 460 q 99 539 151 539 q 198 539 234 471 q 270 403 270 307 z"},"b":{"x_min":0,"x_max":353,"ha":353,"o":"m 197 514 q 160 514 133 441 q 105 367 105 259 q 105 158 132 87 q 159 17 192 17 q 231 17 250 80 q 269 143 269 272 q 269 405 252 460 q 236 514 197 514 z m 3 0 l 69 39 l 69 704 l 3 743 l 128 743 l 112 439 q 129 489 151 514 q 173 539 200 539 q 257 539 292 466 q 326 393 326 268 q 326 147 288 69 q 250 -9 194 -9 q 164 -9 140 25 q 116 60 101 125 l 94 0 z"},"%":{"x_min":0,"x_max":582,"ha":582,"o":"m 449 389 q 416 389 401 350 q 387 311 387 216 q 387 106 402 62 q 416 17 450 17 q 481 17 493 59 q 506 102 506 215 q 506 310 493 350 q 479 389 449 389 z m 449 412 q 497 412 526 360 q 555 308 555 219 q 555 114 526 52 q 497 -9 449 -9 q 397 -9 367 49 q 338 107 338 211 q 338 302 368 357 q 399 412 449 412 z m 424 743 l 191 0 l 105 0 l 185 39 l 356 705 l 297 743 z m 138 727 q 104 727 90 688 q 75 648 75 554 q 75 446 90 401 q 104 356 139 356 q 169 356 182 397 q 194 438 194 553 q 194 650 181 689 q 168 727 138 727 z m 138 751 q 187 751 215 699 q 244 647 244 557 q 244 452 215 391 q 187 330 138 330 q 86 330 56 388 q 27 447 27 550 q 27 641 58 696 q 88 751 138 751 z"},"m":{"x_min":0,"x_max":508,"ha":508,"o":"m 3 0 l 65 39 l 65 494 l 3 531 l 94 531 l 98 393 q 112 463 138 501 q 163 539 195 539 q 221 539 241 525 q 261 512 279 482 q 296 511 314 525 q 332 539 353 539 q 404 539 440 469 q 475 399 475 292 q 475 216 454 155 q 434 93 390 38 l 473 0 l 337 0 q 381 56 401 126 q 422 196 422 291 q 422 409 404 462 q 386 516 348 516 q 332 516 318 502 q 304 489 290 460 q 297 439 301 416 q 305 393 305 367 q 305 303 288 230 q 271 157 238 76 l 299 39 l 152 39 l 214 76 q 235 146 245 209 q 256 272 256 328 q 256 412 237 464 q 218 516 189 516 q 158 516 129 439 q 100 362 100 262 q 100 206 106 139 q 111 72 122 0 z"},"#":{"x_min":0,"x_max":451,"ha":451,"o":"m 302 462 l 176 462 l 152 296 l 278 296 z m 337 462 l 323 296 l 429 296 l 429 167 l 391 252 l 319 257 l 299 35 l 354 0 l 236 0 l 273 261 l 148 272 l 108 0 l 38 0 l 95 40 l 116 274 l 57 279 l 21 227 l 21 296 l 117 296 l 131 462 l 21 462 l 21 597 l 58 510 l 135 503 l 153 707 l 98 743 l 217 743 l 181 499 l 305 489 l 342 743 l 418 743 l 360 710 l 340 486 l 394 481 l 430 535 l 430 462 z"},",":{"x_min":0,"x_max":159,"ha":159,"o":"m 76 -117 l 91 -6 q 84 -7 82 -8 q 79 -8 75 -8 q 52 -8 37 2 q 21 12 21 26 q 21 41 38 51 q 55 61 80 61 q 105 61 122 51 q 138 40 138 24 q 138 21 137 18 q 136 14 134 9 z"},"n":{"x_min":0,"x_max":354,"ha":354,"o":"m 3 0 l 65 39 l 65 494 l 3 531 l 94 531 l 98 393 q 113 463 140 501 q 166 539 199 539 q 250 539 286 469 q 321 400 321 292 q 321 216 300 154 q 280 92 236 38 l 320 0 l 184 0 q 228 57 248 127 q 268 197 268 300 q 268 410 250 463 q 232 516 196 516 q 160 516 131 439 q 101 361 101 253 q 101 192 106 128 q 111 65 122 0 z"},"h":{"x_min":0,"x_max":355,"ha":355,"o":"m 128 743 l 113 442 q 129 489 151 514 q 174 539 200 539 q 251 539 287 469 q 322 399 322 292 q 322 216 301 155 q 281 93 237 38 l 321 0 l 185 0 q 229 56 249 125 q 269 195 269 289 q 269 405 251 461 q 234 516 197 516 q 167 516 140 464 q 113 413 110 345 l 94 0 l 3 0 l 69 39 l 69 704 l 3 743 z"},"z":{"x_min":0,"x_max":313,"ha":313,"o":"m 284 531 l 55 19 l 236 19 l 271 232 l 271 0 l 26 0 l 211 511 l 82 511 l 47 295 l 47 531 z"},"B":{"x_min":0,"x_max":319,"ha":319,"o":"m 79 19 l 105 20 q 171 21 210 76 q 249 131 249 223 q 249 308 225 349 q 202 390 153 390 q 140 390 118 388 q 108 387 104 387 z m 105 408 q 108 408 115 407 q 134 406 140 406 q 189 406 215 451 q 240 496 240 582 q 240 655 213 689 q 185 724 128 724 l 126 724 z m 2 0 l 63 39 l 63 707 l 11 743 l 126 743 q 202 743 245 701 q 287 660 287 585 q 287 521 262 472 q 236 424 191 401 q 242 386 271 340 q 301 295 301 232 q 301 131 244 65 q 188 0 102 0 z"},"K":{"x_min":0,"x_max":342,"ha":342,"o":"m 2 0 l 63 39 l 63 707 l 11 743 l 126 743 l 106 432 l 255 699 l 195 743 l 341 743 l 282 699 l 148 463 l 287 48 l 350 0 l 203 0 l 268 51 l 104 397 l 79 0 z"},"R":{"x_min":0,"x_max":340,"ha":340,"o":"m 100 316 q 102 316 106 315 q 110 315 112 315 q 176 315 215 378 q 254 440 254 545 q 254 631 222 678 q 191 724 132 724 l 126 724 z m 2 0 l 63 39 l 63 707 l 11 743 l 123 743 q 204 743 253 684 q 303 624 303 527 q 303 446 264 386 q 225 327 157 304 l 274 47 l 335 0 l 184 0 l 253 51 l 99 296 l 79 0 z"},"T":{"x_min":0,"x_max":310,"ha":310,"o":"m 300 464 l 246 723 l 164 723 l 179 41 l 243 0 l 57 0 l 122 38 l 146 723 l 62 723 l 10 464 l 10 743 l 300 743 z"},"P":{"x_min":0,"x_max":309,"ha":309,"o":"m 99 316 l 106 316 q 171 316 210 377 q 249 439 249 545 q 249 638 220 682 q 191 726 129 726 l 127 726 z m 2 0 l 63 39 l 63 707 l 11 743 l 122 743 q 202 743 250 684 q 298 625 298 527 q 298 429 241 364 q 184 299 98 299 l 79 0 z"},"|":{"x_min":0,"x_max":557,"ha":557,"o":"m 262 743 l 295 743 l 295 -186 l 262 -186 z"},"t":{"x_min":0,"x_max":289,"ha":289,"o":"m 290 198 l 290 10 l 273 77 q 253 32 232 11 q 210 -9 181 -9 q 131 -9 106 35 q 81 78 81 166 q 81 225 86 288 q 91 352 101 419 l 55 419 l 18 327 l 18 529 l 56 439 l 103 439 q 120 533 133 600 q 146 667 154 704 l 89 742 l 259 742 l 179 703 q 165 611 157 546 q 149 481 146 439 l 226 439 l 265 529 l 265 330 l 226 419 l 144 419 q 139 369 136 312 q 134 256 134 192 q 134 97 147 56 q 160 15 190 15 q 221 15 245 60 q 270 105 290 198 z"},"M":{"x_min":0,"x_max":434,"ha":434,"o":"m 2 0 l 64 39 l 64 707 l 12 743 l 136 743 l 209 381 l 355 743 l 424 743 l 370 707 l 370 36 l 424 0 l 307 0 l 345 639 l 213 222 l 121 699 l 80 0 z"},"g":{"x_min":0,"x_max":348,"ha":348,"o":"m 160 514 q 121 514 103 452 q 84 390 84 259 q 84 125 100 71 q 117 17 155 17 q 193 17 220 91 q 247 166 247 279 q 247 375 220 445 q 192 514 160 514 z m 345 531 l 283 493 l 283 44 q 283 -81 253 -144 q 222 -207 162 -207 q 135 -207 112 -192 q 88 -178 72 -151 l 43 -209 l 43 -32 q 72 -123 98 -156 q 124 -189 163 -189 q 206 -189 223 -140 q 240 -92 240 37 l 240 92 q 223 42 201 16 q 179 -9 152 -9 q 95 -9 60 64 q 26 138 26 263 q 26 386 63 463 q 100 539 157 539 q 187 539 210 504 q 234 470 249 406 l 258 531 z"},"j":{"x_min":0,"x_max":213,"ha":213,"o":"m 44 617 q 44 630 63 639 q 82 648 111 648 q 140 648 160 639 q 179 630 179 617 q 179 604 160 595 q 141 587 111 587 q 81 587 62 595 q 44 604 44 617 z m -66 -209 l -66 -32 q -32 -138 -14 -163 q 4 -189 30 -189 q 64 -189 79 -148 q 93 -106 93 -2 q 93 42 92 104 q 91 166 89 237 l 83 491 l 2 531 l 213 531 l 136 491 l 121 44 q 115 -125 95 -166 q 76 -207 28 -207 q 7 -207 -9 -193 q -25 -180 -39 -151 z"},"i":{"x_min":0,"x_max":223,"ha":223,"o":"m 43 617 q 43 630 62 639 q 82 648 111 648 q 140 648 160 639 q 179 630 179 617 q 179 604 160 596 q 141 587 111 587 q 81 587 62 595 q 43 604 43 617 z m 28 0 l 102 39 l 84 492 l 3 531 l 220 531 l 137 492 l 123 39 l 194 0 z"},"y":{"x_min":0,"x_max":354,"ha":354,"o":"m 350 531 l 287 491 l 287 44 q 287 -81 257 -144 q 226 -207 166 -207 q 139 -207 115 -192 q 90 -177 75 -151 l 47 -209 l 47 -32 q 76 -123 102 -156 q 128 -189 166 -189 q 209 -189 227 -140 q 245 -91 245 37 l 245 92 q 230 44 207 18 q 183 -9 155 -9 q 104 -9 69 62 q 33 132 33 239 q 33 315 54 377 q 74 439 118 493 l 34 531 l 170 531 q 126 474 106 405 q 86 335 86 235 q 86 119 103 67 q 121 15 159 15 q 192 15 221 77 q 250 138 252 223 l 258 531 z"},"@":{"x_min":0,"x_max":828,"ha":828,"o":"m 481 392 q 481 487 454 552 q 427 616 392 616 q 355 616 339 559 q 323 501 323 372 q 323 231 337 186 q 352 140 388 140 q 428 140 454 210 q 481 280 481 392 z m 584 40 l 599 -57 l 552 8 q 525 0 496 -5 q 467 -9 435 -9 q 360 -9 293 11 q 227 30 172 69 q 99 120 60 196 q 21 272 21 363 q 21 444 49 514 q 77 585 128 634 q 189 692 265 722 q 340 751 431 751 q 514 751 587 722 q 660 693 720 637 q 762 598 785 544 q 807 491 807 430 q 807 293 716 209 q 625 125 474 123 l 474 216 q 458 166 435 140 q 413 115 385 115 q 328 115 297 183 q 266 250 266 376 q 266 498 300 570 q 334 641 391 641 q 420 641 445 605 q 470 569 483 507 l 492 633 l 579 633 l 517 595 l 517 150 q 627 163 696 240 q 765 316 765 425 q 765 482 743 534 q 720 587 680 625 q 628 674 565 699 q 503 724 432 724 q 356 724 291 698 q 227 672 172 620 q 123 573 96 506 q 69 438 69 361 q 69 277 105 206 q 141 134 208 87 q 256 53 312 35 q 369 18 434 18 q 468 18 505 23 q 542 29 584 40 z"},".":{"x_min":0,"x_max":159,"ha":159,"o":"m 79 62 q 104 62 120 52 q 136 41 136 26 q 136 12 120 1 q 103 -9 79 -9 q 55 -9 39 1 q 23 12 23 26 q 23 41 39 52 q 55 62 79 62 z"},"p":{"x_min":0,"x_max":353,"ha":353,"o":"m 197 514 q 159 514 132 442 q 105 369 105 260 q 105 157 132 87 q 158 17 192 17 q 231 17 250 81 q 269 146 269 282 q 269 407 252 460 q 235 514 197 514 z m 7 -212 l 69 -174 l 69 490 l 3 531 l 94 531 l 100 380 q 115 459 140 499 q 165 539 200 539 q 257 539 292 466 q 326 393 326 268 q 326 146 289 68 q 252 -9 197 -9 q 171 -9 150 19 q 128 46 113 98 l 127 -212 z"},"X":{"x_min":0,"x_max":365,"ha":365,"o":"m 370 0 l 253 0 l 168 317 l 80 69 l 147 17 l 3 17 l 58 62 l 159 350 l 67 698 l 6 743 l 153 743 l 87 693 l 182 417 l 274 678 l 210 725 l 359 725 l 295 678 l 193 387 l 315 35 z"},"*":{"x_min":0,"x_max":291,"ha":291,"o":"m 263 658 l 189 662 l 158 619 l 259 619 l 259 532 l 213 606 l 158 606 l 212 520 l 146 477 l 177 551 l 144 599 l 85 514 l 23 557 l 94 554 l 131 606 l 31 606 l 31 689 l 80 619 l 131 619 l 76 702 l 145 751 l 116 672 l 145 626 l 203 707 z"},"Y":{"x_min":0,"x_max":340,"ha":340,"o":"m 364 724 l 310 682 l 177 315 l 209 36 l 266 0 l 83 0 l 143 36 l 158 315 l 56 696 l -6 743 l 143 743 l 77 692 l 192 404 l 284 674 l 219 724 z"},"c":{"x_min":0,"x_max":290,"ha":290,"o":"m 216 205 l 272 205 q 262 99 232 45 q 203 -9 156 -9 q 97 -9 62 63 q 26 136 26 259 q 26 384 63 461 q 101 539 159 539 q 183 539 203 519 q 223 498 238 458 l 257 546 l 257 309 q 241 408 215 461 q 188 514 156 514 q 121 514 103 446 q 84 377 84 249 q 84 128 102 73 q 119 17 157 17 q 190 17 203 52 q 216 86 216 186 z"},"!":{"x_min":0,"x_max":196,"ha":196,"o":"m 19 26 q 19 41 40 52 q 61 62 94 62 q 126 62 148 52 q 170 41 170 26 q 170 11 148 1 q 127 -9 94 -9 q 61 -9 40 1 q 19 11 19 26 z m 191 743 l 133 706 l 107 127 l 184 90 l 5 90 l 85 127 l 65 703 l 5 743 z"},"/":{"x_min":0,"x_max":266,"ha":266,"o":"m 249 821 l 24 -142 l -48 -142 l 7 -106 l 175 784 l 124 821 z"},"[":{"x_min":0,"x_max":228,"ha":228,"o":"m 223 -137 l 115 -137 l 70 826 l 218 826 l 133 789 l 133 -100 z"},"6":{"x_min":0,"x_max":374,"ha":374,"o":"m 191 414 q 145 414 116 371 q 88 329 88 258 q 88 151 120 82 q 152 13 198 13 q 237 13 266 73 q 295 133 295 222 q 295 308 266 361 q 237 414 191 414 z m 329 722 l 329 448 q 297 592 264 659 q 231 726 192 726 q 144 726 112 628 q 80 530 80 370 q 80 364 81 349 q 81 335 81 328 q 96 382 124 408 q 152 434 195 434 q 264 434 306 377 q 349 321 349 228 q 349 170 330 118 q 310 65 274 26 q 259 10 239 0 q 219 -9 199 -9 q 128 -9 82 93 q 35 194 35 357 q 35 533 79 642 q 124 751 192 751 q 219 751 244 725 q 269 699 292 647 z"},"r":{"x_min":0,"x_max":282,"ha":282,"o":"m 5 0 l 65 39 l 65 494 l 3 531 l 91 531 l 98 395 q 109 470 128 505 q 147 539 179 539 q 203 539 218 521 q 234 503 244 466 l 266 533 l 266 276 q 248 387 225 443 q 202 498 173 498 q 142 498 122 435 q 102 372 102 266 q 102 198 107 131 q 112 64 122 0 z"},"2":{"x_min":0,"x_max":314,"ha":314,"o":"m 295 0 l 1 0 q 137 252 179 366 q 220 479 220 567 q 220 644 203 685 q 186 726 154 726 q 119 726 89 663 q 59 600 20 441 l 20 716 l 58 644 q 80 700 104 726 q 128 751 159 751 q 210 751 244 699 q 278 647 278 566 q 278 439 77 99 q 47 47 31 20 l 246 20 l 295 202 z"},"{":{"x_min":0,"x_max":239,"ha":239,"o":"m 36 -157 l 168 -132 q 108 -51 81 8 q 53 67 53 113 q 53 165 79 215 q 105 265 156 310 l 46 327 l 161 346 q 109 381 83 426 q 57 471 57 524 q 57 582 87 644 q 117 706 181 779 l 41 809 l 223 809 q 160 715 135 653 q 110 590 110 534 q 110 464 138 412 q 167 359 223 327 q 162 287 133 234 q 104 182 104 108 q 104 52 129 -11 q 155 -74 211 -157 z"},"9":{"x_min":0,"x_max":374,"ha":374,"o":"m 174 729 q 134 729 106 669 q 78 609 78 520 q 78 434 107 381 q 136 328 182 328 q 229 328 257 372 q 285 416 285 491 q 285 592 252 660 q 219 729 174 729 z m 44 20 l 44 294 q 76 148 109 82 q 142 16 181 16 q 229 16 261 114 q 292 211 292 371 q 292 378 292 392 q 291 406 291 414 q 275 359 248 333 q 221 308 178 308 q 109 308 66 365 q 24 421 24 514 q 24 572 43 625 q 63 678 99 716 q 114 733 134 742 q 153 751 173 751 q 244 751 291 649 q 338 547 338 384 q 338 209 293 100 q 249 -9 181 -9 q 154 -9 129 17 q 104 42 81 96 z"}," ":{"x_min":0,"x_max":187,"ha":187,"o":""},"I":{"x_min":0,"x_max":184,"ha":184,"o":"m 22 709 q 22 722 42 731 q 61 740 90 740 q 120 740 140 731 q 160 722 160 709 q 160 697 140 688 q 121 680 90 680 q 60 680 41 688 q 22 696 22 709 z m -11 0 l 73 35 l 57 617 l -21 653 l 204 653 l 122 617 l 93 35 l 177 0 z"},"H":{"x_min":0,"x_max":367,"ha":367,"o":"m 2 0 l 63 39 l 63 707 l 11 743 l 126 743 l 104 382 l 264 382 l 287 743 l 368 743 l 303 706 l 303 34 l 353 0 l 240 0 l 263 360 l 103 360 l 79 0 z"},"4":{"x_min":0,"x_max":332,"ha":332,"o":"m 312 288 l 281 355 l 241 348 l 241 37 l 294 0 l 173 0 l 197 341 l 18 310 l 76 707 l 21 743 l 139 743 l 49 374 l 200 374 l 227 743 l 297 743 l 241 707 l 241 374 l 281 374 l 312 436 z"},"~":{"x_min":0,"x_max":557,"ha":557,"o":"m 506 432 l 520 425 q 489 377 449 352 q 410 326 367 326 q 338 326 269 352 q 200 377 164 377 q 135 377 110 361 q 85 345 51 303 l 37 311 q 79 366 115 388 q 150 411 193 411 q 226 411 292 386 q 358 362 387 362 q 421 362 452 380 q 482 397 506 432 z"},"D":{"x_min":0,"x_max":333,"ha":333,"o":"m 79 19 q 169 21 210 127 q 251 233 251 469 q 251 616 223 669 q 195 723 126 724 z m 2 0 l 63 39 l 63 707 l 11 743 l 115 743 q 207 743 255 660 q 303 576 303 417 q 303 309 275 215 q 248 121 199 61 q 174 31 144 16 q 114 0 81 0 z"},"^":{"x_min":0,"x_max":557,"ha":557,"o":"m 63 472 l 274 795 l 280 795 l 494 472 l 438 472 l 266 732 l 95 472 z"},"0":{"x_min":0,"x_max":353,"ha":353,"o":"m 177 726 q 129 726 110 651 q 91 576 91 372 q 91 167 110 92 q 129 17 177 17 q 224 17 243 91 q 262 166 262 372 q 262 578 243 652 q 224 726 177 726 z m 177 751 q 243 751 284 648 q 324 546 324 372 q 324 198 284 96 q 243 -7 177 -7 q 110 -7 70 95 q 29 198 29 372 q 29 545 70 648 q 111 751 177 751 z"},"F":{"x_min":0,"x_max":308,"ha":308,"o":"m 2 0 l 63 39 l 63 707 l 11 743 l 316 743 l 247 563 l 247 724 l 126 724 l 104 383 l 181 383 l 230 483 l 230 257 l 179 361 l 102 361 l 79 0 z"},"`":{"x_min":0,"x_max":500,"ha":500,"o":"m 278 590 l 147 687 l 232 687 z"},"k":{"x_min":0,"x_max":336,"ha":336,"o":"m 3 0 l 69 39 l 69 704 l 3 743 l 128 743 l 108 317 l 224 491 l 161 531 l 312 531 l 252 491 l 143 331 l 278 38 l 344 0 l 191 0 l 257 38 l 107 280 l 94 0 z"},"u":{"x_min":0,"x_max":354,"ha":354,"o":"m 350 0 l 245 0 l 246 98 q 230 44 207 18 q 185 -9 155 -9 q 104 -9 69 62 q 33 132 33 239 q 33 314 54 377 q 75 439 118 493 l 34 531 l 170 531 q 126 474 106 403 q 86 332 86 228 q 86 117 104 66 q 121 15 159 15 q 192 15 221 76 q 250 138 252 223 l 258 531 l 350 531 l 287 491 l 287 37 z"},"]":{"x_min":0,"x_max":228,"ha":228,"o":"m 5 -137 l 95 -100 l 95 789 l 10 826 l 158 826 l 113 -137 z"},"U":{"x_min":0,"x_max":356,"ha":356,"o":"m 181 688 l 328 688 l 261 640 q 292 580 308 516 q 324 452 324 385 q 324 287 302 197 q 279 108 240 46 q 224 21 204 7 q 184 -7 163 -7 q 108 -7 69 78 q 30 163 30 291 q 30 384 51 487 q 72 590 113 697 l 51 743 l 198 743 l 133 696 q 110 625 99 536 q 89 447 89 317 q 89 150 106 84 q 124 17 164 17 q 209 17 241 136 q 273 256 273 439 q 273 514 265 562 q 257 610 239 642 z"},"o":{"x_min":0,"x_max":292,"ha":292,"o":"m 145 515 q 111 515 94 455 q 76 396 76 279 q 76 149 94 83 q 111 16 145 16 q 180 16 198 83 q 216 151 216 279 q 216 396 198 455 q 180 515 145 515 z m 146 539 q 197 539 232 463 q 266 387 266 267 q 266 143 232 67 q 199 -9 146 -9 q 94 -9 60 68 q 26 144 26 267 q 26 386 61 463 q 95 539 146 539 z"},"N":{"x_min":0,"x_max":378,"ha":378,"o":"m 2 0 l 63 39 l 63 707 l 11 743 l 126 743 l 258 78 l 297 743 l 371 743 l 314 705 l 314 36 l 368 0 l 249 0 l 118 644 l 79 0 z"},"+":{"x_min":0,"x_max":833,"ha":833,"o":"m 397 596 l 436 596 l 436 318 l 709 318 l 709 278 l 436 278 l 436 0 l 397 0 l 397 278 l 124 278 l 124 318 l 397 318 z"},"G":{"x_min":0,"x_max":346,"ha":346,"o":"m 161 381 l 319 381 l 319 296 q 319 171 274 82 q 229 -7 172 -7 q 110 -7 70 97 q 29 201 29 369 q 29 537 73 644 q 118 751 182 751 q 212 751 237 729 q 262 707 276 666 l 306 737 l 306 499 q 282 620 252 676 q 222 732 181 732 q 133 732 112 642 q 91 551 91 331 q 91 149 110 82 q 128 14 174 14 q 214 14 240 75 q 265 136 265 234 l 265 368 l 215 368 l 161 262 z"},"q":{"x_min":0,"x_max":353,"ha":353,"o":"m 247 252 q 247 367 220 440 q 193 514 155 514 q 117 514 100 460 q 84 407 84 272 q 84 142 103 79 q 121 17 160 17 q 192 17 220 86 q 247 156 247 252 z m 349 531 l 283 490 l 283 -174 l 345 -212 l 225 -212 l 239 98 q 224 46 202 19 q 180 -9 154 -9 q 101 -9 63 69 q 26 146 26 268 q 26 393 60 466 q 95 539 152 539 q 186 539 212 499 q 237 458 253 380 l 258 531 z"},"d":{"x_min":0,"x_max":353,"ha":353,"o":"m 247 279 q 247 377 220 446 q 193 514 158 514 q 122 514 102 451 q 83 388 83 269 q 83 125 99 71 q 115 17 155 17 q 194 17 220 90 q 247 164 247 279 z m 349 0 l 258 0 l 253 151 q 236 70 211 31 q 186 -9 152 -9 q 95 -9 60 64 q 26 138 26 263 q 26 384 63 462 q 100 539 154 539 q 181 539 202 513 q 223 486 239 433 l 225 743 l 349 743 l 283 705 l 283 41 z"},"1":{"x_min":0,"x_max":239,"ha":239,"o":"m 216 0 l 36 0 l 118 34 l 100 631 l 1 583 l 169 753 l 138 34 z"},"5":{"x_min":0,"x_max":340,"ha":340,"o":"m 322 743 l 266 596 l 266 724 l 152 724 l 89 414 q 109 426 129 433 q 149 439 167 439 q 233 439 277 384 q 321 328 321 242 q 321 139 275 66 q 229 -7 167 -7 q 134 -7 105 22 q 76 51 59 102 l 24 31 l 24 308 q 61 140 92 77 q 124 15 168 15 q 208 15 237 78 q 265 140 265 234 q 265 314 236 366 q 207 418 163 418 q 139 418 113 406 q 87 393 61 368 l 81 705 l 24 743 z"}}}
